<?xml version="1.0" encoding="utf-8"?>
<svg version="1.1" xmlns="http://www.w3.org/2000/svg" xmlns:xlink="http://www.w3.org/1999/xlink" height="60" width="60">
  <defs>
    <path id="path-0" opacity="1" fill-rule="evenodd" d="M0,22.5 C0,10.070913314819336 10.070913314819336,0 22.5,0 C34.92908477783203,0 45,10.070913314819336 45,22.5 C45,34.92908477783203 34.92908477783203,45 22.5,45 C10.070913314819336,45 0,34.92908477783203 0,22.5 L0,22.5ZM36.27043151855469,8.729567527770996 C32.59254837036133,5.051682472229004 27.703125,3.028846263885498 22.5,3.028846263885498 C17.296875,3.028846263885498 12.407451629638672,5.051682472229004 8.729567527770996,8.729567527770996 C5.051682472229004,12.407451629638672 3.028846263885498,17.296875 3.028846263885498,22.5 C3.028846263885498,27.703125 5.051682472229004,32.59254837036133 8.729567527770996,36.27043151855469 C12.407451629638672,39.94831848144531 17.296875,41.971153259277344 22.5,41.971153259277344 C27.703125,41.971153259277344 32.59254837036133,39.94831848144531 36.27043151855469,36.27043151855469 C39.94831848144531,32.59254837036133 41.971153259277344,27.703125 41.971153259277344,22.5 C41.971153259277344,17.296875 39.94831848144531,12.407451629638672 36.27043151855469,8.729567527770996 L36.27043151855469,8.729567527770996Z"/>
    <path id="path-1" opacity="1" fill-rule="evenodd" d="M29.423076629638672,17.599760055541992 C29.423076629638672,14.365385055541992 26.632211685180664,12.115385055541992 22.575721740722656,12.115385055541992 C18.227163314819336,12.115385055541992 15.652644157409668,14.570913314819336 15.576923370361328,18.054086685180664 L19.417068481445312,18.054086685180664 C19.50360679626465,16.453125 20.682693481445312,15.39302921295166 22.316104888916016,15.39302921295166 C23.927885055541992,15.39302921295166 25.225961685180664,16.377403259277344 25.225961685180664,17.71875 C25.225961685180664,19.060096740722656 24.45793342590332,19.752403259277344 22.62980842590332,20.844951629638672 C20.671875,21.991586685180664 19.893028259277344,23.376201629638672 20.076923370361328,25.604568481445312 L20.109375,26.534854888916016 L23.862979888916016,26.534854888916016 L23.862979888916016,25.68029022216797 C23.862979888916016,24.295673370361328 24.501201629638672,23.495193481445312 26.383413314819336,22.402645111083984 C28.38461685180664,21.22355842590332 29.423076629638672,19.741586685180664 29.423076629638672,17.599760055541992 L29.423076629638672,17.599760055541992ZM22.045673370361328,28.427885055541992 C20.76923179626465,28.427885055541992 19.730770111083984,29.412260055541992 19.730770111083984,30.65625 C19.730770111083984,31.91105842590332 20.75841522216797,32.88461685180664 22.045673370361328,32.88461685180664 C23.33293342590332,32.88461685180664 24.371395111083984,31.91105842590332 24.371395111083984,30.65625 C24.371395111083984,29.401443481445312 23.33293342590332,28.427885055541992 22.045673370361328,28.427885055541992 L22.045673370361328,28.427885055541992Z"/>
  </defs>
  <g opacity="1">
    <g opacity="1">
      <g opacity="1">
        <use xlink:href="#path-0" fill="rgb(255,255,255)" fill-opacity="1"/>
      </g>
      <g opacity="1">
        <use xlink:href="#path-1" fill="rgb(255,255,255)" fill-opacity="1"/>
      </g>
    </g>
  </g>
</svg>