<?xml version="1.0" encoding="utf-8"?>
<svg version="1.1" xmlns="http://www.w3.org/2000/svg" xmlns:xlink="http://www.w3.org/1999/xlink" height="35" width="35">
  <defs>
    <path id="path-0" opacity="1" fill-rule="evenodd" d="M34.53814697265625,0.1886749267578125 C34.68115234375,0.22235107421875 34.782073974609375,0.331787109375 34.81571960449219,0.474884033203125 C35.91755676269531,5.2816162109375 31.955978393554688,15.62744140625 26.202850341796875,21.35174560546875 C25.084182739257812,22.471343994140625 23.973922729492188,23.388916015625 22.905731201171875,24.13812255859375 C23.05712890625,25.897506713867188 22.92254638671875,27.656890869140625 22.266494750976562,29.163726806640625 C20.40765380859375,33.41485595703125 15.520858764648438,34.652313232421875 13.426513671875,34.98902893066406 C12.930267333984375,35.073211669921875 12.501312255859375,34.660736083984375 12.551773071289062,34.1640625 L13.30035400390625,27.345413208007812 C12.6527099609375,27.336990356445312 12.1312255859375,27.294906616210938 11.769546508789062,27.2528076171875 C11.416290283203125,27.219146728515625 11.0882568359375,27.0592041015625 10.835922241210938,26.806655883789062 L8.194869995117188,24.163375854492188 C7.942535400390625,23.91082763671875 7.7827301025390625,23.582534790039062 7.74908447265625,23.228973388671875 C7.70703125,22.866989135742188 7.66497802734375,22.345077514648438 7.6565704345703125,21.688461303710938 L0.835235595703125,22.437667846679688 C0.3389892578125,22.488174438476562 -0.073150634765625,22.058853149414062 0.010955810546875,21.56219482421875 C0.355804443359375,19.466094970703125 1.59222412109375,14.583602905273438 5.83978271484375,12.71478271484375 C7.3453521728515625,12.05816650390625 9.111663818359375,11.923477172851562 10.87799072265625,12.083419799804688 C11.626556396484375,11.014328002929688 12.543365478515625,9.91156005859375 13.662033081054688,8.791961669921875 C19.389923095703125,3.059234619140625 29.962570190429688,-0.9309234619140625 34.53814697265625,0.1886749267578125 L34.53814697265625,0.1886749267578125ZM21.088958740234375,8.85089111328125 C19.684310913085938,10.2567138671875 19.684310913085938,12.529586791992188 21.088958740234375,13.935409545898438 C22.49359130859375,15.341232299804688 24.764572143554688,15.341232299804688 26.169204711914062,13.935409545898438 C27.5738525390625,12.529586791992188 27.5738525390625,10.2567138671875 26.169204711914062,8.85089111328125 C24.764572143554688,7.445068359375 22.49359130859375,7.445068359375 21.088958740234375,8.85089111328125 L21.088958740234375,8.85089111328125Z"/>
    <path id="path-1" opacity="1" fill-rule="evenodd" d="M10.525275054732642,27.964432222422154 C10.182475106469333,28.307537175171685 9.570332341713424,28.503597148171423 8.90921815577704,28.617965465754597 C7.423751713302703,28.87120959754592 6.126009052020176,27.572312276422686 6.379028061452618,26.085524147841376 C6.493294710873721,25.423821738967273 6.681018492065533,24.811134323343108 7.023818440328842,24.476198536135232 L7.031980343858921,24.468029370593577 C7.2197041250507334,24.280138563135495 7.064627957979236,23.969710272552586 6.803447045016714,24.00238693471921 C6.003580499068994,24.100416921219075 5.220037760181429,24.45986020505192 4.607894995425521,25.07254762067609 C3.1387523600113396,26.54299741817409 3,32 3,32 C3,32 8.460313461622707,31.86112418579186 9.929456097036889,30.390674388293856 C10.549760765322876,29.76981780712803 10.900722617116266,28.993747080670754 10.998665459477209,28.193168857588514 C11.023151170067447,27.93175556025554 10.704836932394374,27.77654141496408 10.525275054732642,27.964432222422154Z"/>
  </defs>
  <g opacity="0.4734235491071428">
    <g opacity="1">
      <use xlink:href="#path-0" fill="rgb(255,255,255)" fill-opacity="1"/>
    </g>
    <g opacity="1">
      <use xlink:href="#path-1" fill="rgb(255,255,255)" fill-opacity="1"/>
    </g>
  </g>
</svg>