<?xml version="1.0" encoding="utf-8"?>
<svg version="1.1" xmlns="http://www.w3.org/2000/svg" xmlns:xlink="http://www.w3.org/1999/xlink" height="27" width="17">
  <defs>
    <path id="path-0" opacity="1" fill-rule="evenodd" d="M0,8.5 C0,13.19442081451416 3.805579662322998,17 8.5,17 C13.19442081451416,17 17,13.19442081451416 17,8.5 C17,3.805579662322998 13.19442081451416,0 8.5,0 C3.805579662322998,0 0,3.805579662322998 0,8.5 L0,8.5ZM15,8.5 C15,12.089850425720215 12.089850425720215,15 8.5,15 C4.910149097442627,15 2,12.089850425720215 2,8.5 C2,4.910149097442627 4.910149097442627,2 8.5,2 C12.089850425720215,2 15,4.910149097442627 15,8.5 L15,8.5Z"/>
    <path id="path-1" opacity="1" fill-rule="evenodd" d="M9,16 C9.551915024494,16 10,16.448084975506 10,17 L10,26 C10,26.551915024494 9.551915024494,27 9,27 C8.448084975506,27 8,26.551915024494 8,26 L8,17 C8,16.448084975506 8.448084975506,16 9,16 L9,16Z"/>
  </defs>
  <g opacity="1">
    <g opacity="1">
      <use xlink:href="#path-0" fill="rgb(255,255,255)" fill-opacity="1"/>
    </g>
    <g opacity="1">
      <use xlink:href="#path-1" fill="rgb(255,255,255)" fill-opacity="1"/>
    </g>
  </g>
</svg>